<svg xmlns="http://www.w3.org/2000/svg" width="16" height="7.931" viewBox="0 0 16 7.931">
  <path id="arrow" d="M15.925,4.491a.8.8,0,0,0-.21-.261l-4-3.169a1.052,1.052,0,0,0-.326-.172A1.237,1.237,0,0,0,11,.828a1.152,1.152,0,0,0-.71.233A.723.723,0,0,0,10,1.623a.723.723,0,0,0,.294.563L12.594,4H1a1.147,1.147,0,0,0-.707.232.682.682,0,0,0,0,1.121A1.147,1.147,0,0,0,1,5.585H12.594L10.293,7.4a.811.811,0,0,0-.219.258.642.642,0,0,0,0,.609.811.811,0,0,0,.219.258,1.047,1.047,0,0,0,.326.173,1.245,1.245,0,0,0,.769,0,1.046,1.046,0,0,0,.326-.173l4-3.169a.8.8,0,0,0,.21-.261A.642.642,0,0,0,15.925,4.491Z" transform="translate(0 -0.828)" fill="#5f5f5f"/>
</svg>
