<svg xmlns="http://www.w3.org/2000/svg" width="20.5" height="19" viewBox="0 0 24.5 23">
  <path id="basket" d="M0,.821A.824.824,0,0,1,.239.241.814.814,0,0,1,.817,0h2.45a.814.814,0,0,1,.5.174.822.822,0,0,1,.29.448L4.72,3.286H23.684a.815.815,0,0,1,.643.316.825.825,0,0,1,.149.7l-2.45,9.857a.822.822,0,0,1-.29.448.813.813,0,0,1-.5.174H6.533a.813.813,0,0,1-.5-.174.822.822,0,0,1-.29-.448L2.63,1.643H.817A.814.814,0,0,1,.239,1.4.824.824,0,0,1,0,.821ZM5.129,4.929,7.17,13.143H20.6l2.042-8.214ZM8.167,18.071a1.629,1.629,0,0,0-1.155.481,1.65,1.65,0,0,0,0,2.323,1.627,1.627,0,0,0,2.31,0,1.65,1.65,0,0,0,0-2.323A1.629,1.629,0,0,0,8.167,18.071ZM4.9,19.714a3.3,3.3,0,0,1,.957-2.323,3.253,3.253,0,0,1,4.62,0,3.3,3.3,0,0,1,0,4.647,3.253,3.253,0,0,1-4.62,0A3.3,3.3,0,0,1,4.9,19.714Zm14.7-1.643a1.629,1.629,0,0,0-1.155.481,1.65,1.65,0,0,0,0,2.323,1.627,1.627,0,0,0,2.31,0,1.65,1.65,0,0,0,0-2.323A1.629,1.629,0,0,0,19.6,18.071Zm-3.267,1.643a3.3,3.3,0,0,1,.957-2.323,3.253,3.253,0,0,1,4.62,0,3.3,3.3,0,0,1,0,4.647,3.253,3.253,0,0,1-4.62,0A3.3,3.3,0,0,1,16.333,19.714Z" fill="#5f5f5f" fill-rule="evenodd"/>
</svg>
