<svg xmlns="http://www.w3.org/2000/svg" width="20" height="20" viewBox="0 0 26 26">
  <g id="dashboard-svgrepo-com" transform="translate(-3.25 -3.25)">
    <path id="Path_37" data-name="Path 37" d="M19.017,4.427c-.427.427-.427,1.115-.427,2.491s0,2.063.427,2.491,1.115.427,2.491.427h2.918c1.375,0,2.063,0,2.491-.427s.427-1.115.427-2.491,0-2.063-.427-2.491S25.8,4,24.425,4H21.507C20.132,4,19.444,4,19.017,4.427ZM4.427,21.934C4,22.362,4,23.05,4,24.425s0,2.063.427,2.491,1.115.427,2.491.427H9.836c1.375,0,2.063,0,2.491-.427s.427-1.115.427-2.491,0-2.063-.427-2.491-1.115-.427-2.491-.427H6.918C5.542,21.507,4.855,21.507,4.427,21.934Zm14.162-3.345c0-1.375,0-2.063.427-2.491s1.115-.427,2.491-.427h2.918c1.375,0,2.063,0,2.491.427s.427,1.115.427,2.491v5.836c0,1.375,0,2.063-.427,2.491s-1.115.427-2.491.427H21.507c-1.375,0-2.063,0-2.491-.427s-.427-1.115-.427-2.491ZM4.427,4.427C4,4.855,4,5.542,4,6.918v5.836c0,1.375,0,2.063.427,2.491s1.115.427,2.491.427H9.836c1.375,0,2.063,0,2.491-.427s.427-1.115.427-2.491V6.918c0-1.375,0-2.063-.427-2.491S11.211,4,9.836,4H6.918C5.542,4,4.855,4,4.427,4.427Z" transform="translate(0.579 0.579)" fill="#7e7e7e" fill-rule="evenodd"/>
    <path id="Path_38" data-name="Path 38" d="M5.587,5.587l0,0,.015-.007a1.049,1.049,0,0,1,.248-.055,12.822,12.822,0,0,1,1.482-.044h2.971a12.822,12.822,0,0,1,1.482.044,1.049,1.049,0,0,1,.248.055l.015.007,0,0,0,0,.007.015a1.049,1.049,0,0,1,.055.248,12.822,12.822,0,0,1,.044,1.482v5.943a12.821,12.821,0,0,1-.044,1.482,1.047,1.047,0,0,1-.055.248l-.007.015,0,0,0,0-.015.007a1.045,1.045,0,0,1-.248.055,12.835,12.835,0,0,1-1.482.044H7.336a12.835,12.835,0,0,1-1.482-.044,1.045,1.045,0,0,1-.248-.055l-.015-.007,0,0,0,0-.007-.015a1.047,1.047,0,0,1-.055-.248,12.821,12.821,0,0,1-.044-1.482V7.336a12.822,12.822,0,0,1,.044-1.482,1.049,1.049,0,0,1,.055-.248l.007-.015ZM7.269,3.25h3.1a13.8,13.8,0,0,1,1.712.064,2.574,2.574,0,0,1,1.545.7,2.574,2.574,0,0,1,.7,1.545,13.783,13.783,0,0,1,.064,1.712v6.076a13.782,13.782,0,0,1-.064,1.712A2.4,2.4,0,0,1,12.086,17.3a13.783,13.783,0,0,1-1.712.064h-3.1A13.783,13.783,0,0,1,5.557,17.3a2.574,2.574,0,0,1-1.545-.7,2.574,2.574,0,0,1-.7-1.545,13.793,13.793,0,0,1-.064-1.712V7.269a13.794,13.794,0,0,1,.064-1.712,2.575,2.575,0,0,1,.7-1.545,2.575,2.575,0,0,1,1.545-.7A13.8,13.8,0,0,1,7.269,3.25ZM20.448,5.585l0,0,0,0-.007.015a1.045,1.045,0,0,0-.055.248,12.834,12.834,0,0,0-.044,1.482,12.834,12.834,0,0,0,.044,1.482,1.045,1.045,0,0,0,.055.248l0,.008,0,.007,0,0,0,0,.015.007a1.046,1.046,0,0,0,.248.055,12.82,12.82,0,0,0,1.482.044h2.971a12.82,12.82,0,0,0,1.482-.044,1.046,1.046,0,0,0,.248-.055l.015-.007,0,0,0,0,.007-.015a1.045,1.045,0,0,0,.055-.248,12.834,12.834,0,0,0,.044-1.482,12.835,12.835,0,0,0-.044-1.482,1.045,1.045,0,0,0-.055-.248l-.007-.015,0,0,0,0-.015-.007a1.046,1.046,0,0,0-.248-.055,12.821,12.821,0,0,0-1.482-.044H22.193a12.821,12.821,0,0,0-1.482.044,1.046,1.046,0,0,0-.248.055ZM22.126,3.25h3.1a13.8,13.8,0,0,1,1.712.064,2.574,2.574,0,0,1,1.545.7,2.574,2.574,0,0,1,.7,1.545,13.784,13.784,0,0,1,.064,1.712V7.4a13.784,13.784,0,0,1-.064,1.712,2.574,2.574,0,0,1-.7,1.545,2.574,2.574,0,0,1-1.545.7,13.8,13.8,0,0,1-1.712.064h-3.1a13.8,13.8,0,0,1-1.712-.064,2.574,2.574,0,0,1-1.545-.7,2.574,2.574,0,0,1-.7-1.545A13.783,13.783,0,0,1,18.107,7.4V7.269a13.783,13.783,0,0,1,.064-1.712,2.574,2.574,0,0,1,.7-1.545,2.574,2.574,0,0,1,1.545-.7A13.8,13.8,0,0,1,22.126,3.25Zm0,11.886h3.1a13.812,13.812,0,0,1,1.712.064,2.4,2.4,0,0,1,2.243,2.243,13.784,13.784,0,0,1,.064,1.712v6.076a13.783,13.783,0,0,1-.064,1.712,2.4,2.4,0,0,1-2.243,2.243,13.784,13.784,0,0,1-1.712.064h-3.1a13.784,13.784,0,0,1-1.712-.064,2.4,2.4,0,0,1-2.243-2.243,13.781,13.781,0,0,1-.064-1.712V19.155a13.783,13.783,0,0,1,.064-1.712A2.4,2.4,0,0,1,20.414,15.2,13.812,13.812,0,0,1,22.126,15.136Zm-1.678,2.335,0,0,0,0a.144.144,0,0,0-.007.015,1.045,1.045,0,0,0-.055.248,12.833,12.833,0,0,0-.044,1.482v5.943a12.833,12.833,0,0,0,.044,1.482,1.042,1.042,0,0,0,.055.248.144.144,0,0,0,.007.015l0,0,0,0,.015.007a1.042,1.042,0,0,0,.248.055,12.833,12.833,0,0,0,1.482.044h2.971a12.833,12.833,0,0,0,1.482-.044,1.042,1.042,0,0,0,.248-.055l.015-.007,0,0,0,0a.145.145,0,0,0,.007-.015,1.042,1.042,0,0,0,.055-.248,12.833,12.833,0,0,0,.044-1.482V19.221a12.833,12.833,0,0,0-.044-1.482,1.045,1.045,0,0,0-.055-.248l0-.011,0,0,0,0,0,0-.015-.007a1.042,1.042,0,0,0-.248-.055,12.834,12.834,0,0,0-1.482-.044H22.193a12.834,12.834,0,0,0-1.482.044,1.042,1.042,0,0,0-.248.055ZM5.591,23.414l0,0,0,0-.007.015a1.048,1.048,0,0,0-.055.248,12.821,12.821,0,0,0-.044,1.482,12.821,12.821,0,0,0,.044,1.482,1.046,1.046,0,0,0,.055.248l.007.015,0,0,0,0,.015.007a1.045,1.045,0,0,0,.248.055,12.835,12.835,0,0,0,1.482.044h2.971a12.835,12.835,0,0,0,1.482-.044,1.045,1.045,0,0,0,.248-.055l.009,0,.006,0,0,0,0,0,0,0,0-.011a1.047,1.047,0,0,0,.055-.248,12.821,12.821,0,0,0,.044-1.482,12.821,12.821,0,0,0-.044-1.482,1.049,1.049,0,0,0-.055-.248l-.007-.015,0,0,0,0-.015-.007a1.045,1.045,0,0,0-.248-.055,12.835,12.835,0,0,0-1.482-.044H7.336a12.835,12.835,0,0,0-1.482.044,1.045,1.045,0,0,0-.248.055Zm1.678-2.335h3.1a13.813,13.813,0,0,1,1.712.064,2.4,2.4,0,0,1,2.243,2.243,13.783,13.783,0,0,1,.064,1.712v.133a13.782,13.782,0,0,1-.064,1.712,2.4,2.4,0,0,1-2.243,2.243,13.784,13.784,0,0,1-1.712.064h-3.1a13.784,13.784,0,0,1-1.712-.064,2.574,2.574,0,0,1-1.545-.7,2.574,2.574,0,0,1-.7-1.545,13.793,13.793,0,0,1-.064-1.712V25.1a13.794,13.794,0,0,1,.064-1.712,2.574,2.574,0,0,1,.7-1.545,2.574,2.574,0,0,1,1.545-.7A13.812,13.812,0,0,1,7.269,21.079Z" transform="translate(0 0)" fill="#7e7e7e" fill-rule="evenodd"/>
  </g>
</svg>
