<svg xmlns="http://www.w3.org/2000/svg" width="24.484" height="28.554" viewBox="0 0 28.484 32.554">
  <g id="exit-svgrepo-com" transform="translate(684 138)">
    <g id="Group_149" data-name="Group 149" transform="translate(-684 -138)">
      <g id="Group_148" data-name="Group 148" transform="translate(0)">
        <path id="Path_56" data-name="Path 56" d="M51.668,20.346a.678.678,0,0,0-.678.678v9.495a.678.678,0,0,1-.678.678H34.035a.678.678,0,0,1-.678-.678V2.035a.678.678,0,0,1,.678-.678H50.311a.678.678,0,0,1,.678.678v9.495a.678.678,0,0,0,1.356,0V2.035A2.037,2.037,0,0,0,50.311,0H34.035A2.037,2.037,0,0,0,32,2.035V30.519a2.037,2.037,0,0,0,2.035,2.035H50.311a2.037,2.037,0,0,0,2.035-2.035V21.024A.678.678,0,0,0,51.668,20.346Z" transform="translate(-32)" fill="#707070"/>
        <path id="Path_57" data-name="Path 57" d="M260.021,175.59l-5.426-4.747a.678.678,0,0,0-1.124.51v2.035h-7.46a.678.678,0,0,0-.678.678v4.069a.678.678,0,0,0,.678.678h7.46v2.035a.678.678,0,0,0,1.124.51l5.426-4.747a.677.677,0,0,0,0-1.02Zm-5.194,3.763v-1.218a.679.679,0,0,0-.678-.678h-7.46v-2.713h7.46a.678.678,0,0,0,.678-.678v-1.218l3.718,3.253Z" transform="translate(-231.769 -159.823)" fill="#707070"/>
      </g>
    </g>
  </g>
</svg>
