<svg width="18" height="18" viewBox="0 0 18 18" fill="none" xmlns="http://www.w3.org/2000/svg">
    <path d="M3.73894 0C3.8806 0 4.01646 0.0562747 4.11663 0.156444C4.2168 0.256614 4.27308 0.392473 4.27308 0.534135V1.06827H12.8192V0.534135C12.8192 0.392473 12.8755 0.256614 12.9757 0.156444C13.0758 0.0562747 13.2117 0 13.3534 0C13.495 0 13.6309 0.0562747 13.7311 0.156444C13.8312 0.256614 13.8875 0.392473 13.8875 0.534135V1.06827H14.9558C15.5224 1.06827 16.0659 1.29337 16.4665 1.69405C16.8672 2.09473 17.0923 2.63816 17.0923 3.20481V14.9558C17.0923 15.5224 16.8672 16.0659 16.4665 16.4665C16.0659 16.8672 15.5224 17.0923 14.9558 17.0923H2.13654C1.56989 17.0923 1.02646 16.8672 0.625778 16.4665C0.225099 16.0659 0 15.5224 0 14.9558V3.20481C0 2.63816 0.225099 2.09473 0.625778 1.69405C1.02646 1.29337 1.56989 1.06827 2.13654 1.06827H3.20481V0.534135C3.20481 0.392473 3.26108 0.256614 3.36125 0.156444C3.46142 0.0562747 3.59728 0 3.73894 0V0ZM1.06827 4.27308V14.9558C1.06827 15.2391 1.18082 15.5108 1.38116 15.7112C1.5815 15.9115 1.85322 16.024 2.13654 16.024H14.9558C15.2391 16.024 15.5108 15.9115 15.7112 15.7112C15.9115 15.5108 16.024 15.2391 16.024 14.9558V4.27308H1.06827Z" fill="#959595"/>
</svg>
