<svg xmlns="http://www.w3.org/2000/svg" width="19.76" height="30.772" viewBox="0 0 23.76 34.772">
  <g id="list-svgrepo-com" transform="translate(-47.049)">
    <path id="Path_39" data-name="Path 39" d="M70.552,6.612,64.2.257A.878.878,0,0,0,63.578,0H47.927a.878.878,0,0,0-.878.878V33.894a.878.878,0,0,0,.878.878h22a.878.878,0,0,0,.878-.878V7.233A.878.878,0,0,0,70.552,6.612Zm-2.739-.257H64.456V3ZM48.8,33.017V1.755H62.7V7.233a.878.878,0,0,0,.878.878h5.475V33.017H48.8Z" fill="#7e7e7e"/>
    <path id="Path_40" data-name="Path 40" d="M135.434,94.039h-9.168a.878.878,0,0,0,0,1.756h9.168a.878.878,0,0,0,0-1.756Z" transform="translate(-69.171 -83.033)" fill="#7e7e7e"/>
    <path id="Path_41" data-name="Path 41" d="M81.1,80.2h-.956v-.957a.878.878,0,0,0-1.755,0v1.834a.878.878,0,0,0,.878.878H81.1a.878.878,0,0,0,0-1.756Z" transform="translate(-27.67 -69.195)" fill="#7e7e7e"/>
    <path id="Path_42" data-name="Path 42" d="M135.434,141.057h-9.168a.878.878,0,0,0,0,1.755h9.168a.878.878,0,1,0,0-1.755Z" transform="translate(-69.171 -124.549)" fill="#7e7e7e"/>
    <path id="Path_43" data-name="Path 43" d="M81.1,127.219h-.956v-.956a.878.878,0,1,0-1.755,0V128.1a.878.878,0,0,0,.878.878H81.1a.878.878,0,0,0,0-1.755Z" transform="translate(-27.67 -110.711)" fill="#7e7e7e"/>
    <path id="Path_44" data-name="Path 44" d="M135.434,188.075h-9.168a.878.878,0,1,0,0,1.755h9.168a.878.878,0,0,0,0-1.755Z" transform="translate(-69.171 -166.064)" fill="#7e7e7e"/>
    <path id="Path_45" data-name="Path 45" d="M81.1,174.237h-.956v-.956a.878.878,0,0,0-1.755,0v1.834a.878.878,0,0,0,.878.878H81.1a.878.878,0,1,0,0-1.755Z" transform="translate(-27.67 -152.226)" fill="#7e7e7e"/>
    <path id="Path_46" data-name="Path 46" d="M135.434,235.094h-9.168a.878.878,0,1,0,0,1.755h9.168a.878.878,0,0,0,0-1.755Z" transform="translate(-69.171 -207.58)" fill="#7e7e7e"/>
    <path id="Path_47" data-name="Path 47" d="M81.1,221.255h-.956V220.3a.878.878,0,0,0-1.755,0v1.834a.878.878,0,0,0,.878.878H81.1a.878.878,0,1,0,0-1.755Z" transform="translate(-27.67 -193.741)" fill="#7e7e7e"/>
  </g>
</svg>
