<svg xmlns="http://www.w3.org/2000/svg" xmlns:xlink="http://www.w3.org/1999/xlink" width="48" height="48" viewBox="0 0 48 48">
  <defs>
    <clipPath id="clip-path">
      <rect id="Rectangle_20" data-name="Rectangle 20" width="48" height="48" transform="translate(4)" fill="#ee5d6c"/>
    </clipPath>
  </defs>
  <g id="enter_1" data-name="enter 1" transform="translate(-4)" clip-path="url(#clip-path)">
    <path id="Path_6" data-name="Path 6" d="M24.5,16H5.5a1.5,1.5,0,1,1,0-3h19a1.5,1.5,0,1,1,0,3Z" transform="translate(0 6.5)" fill="#ee5d6c"/>
    <path id="Path_7" data-name="Path 7" d="M13.167,26a1.5,1.5,0,0,1-1.06-2.562L18.547,17l-6.44-6.438a1.5,1.5,0,0,1,2.122-2.122l7.5,7.5a1.5,1.5,0,0,1,0,2.122l-7.5,7.5A1.5,1.5,0,0,1,13.167,26Z" transform="translate(3.833 4)" fill="#ee5d6c"/>
    <path id="Path_8" data-name="Path 8" d="M26.667,48a4,4,0,0,1-4-4V8a4.026,4.026,0,0,1,2.708-3.8L37.391.193A4.042,4.042,0,0,1,42.667,4V40a4.027,4.027,0,0,1-2.706,3.8L27.941,47.8A4.188,4.188,0,0,1,26.667,48Zm12-45a1.177,1.177,0,0,0-.358.052L26.343,7.039A1.032,1.032,0,0,0,25.667,8V44a1.054,1.054,0,0,0,1.358.948l11.966-3.99A1.035,1.035,0,0,0,39.667,40V4A1,1,0,0,0,38.667,3Z" transform="translate(9.333 0.003)" fill="#ee5d6c"/>
    <path id="Path_9" data-name="Path 9" d="M16.167,10a1.5,1.5,0,0,1-1.5-1.5v-3a5.5,5.5,0,0,1,5.5-5.5h22.5a1.5,1.5,0,0,1,0,3h-22.5a2.5,2.5,0,0,0-2.5,2.5v3A1.5,1.5,0,0,1,16.167,10Z" transform="translate(5.333)" fill="#ee5d6c"/>
    <path id="Path_10" data-name="Path 10" d="M28.167,31.333h-8a5.5,5.5,0,0,1-5.5-5.5v-3a1.5,1.5,0,0,1,3,0v3a2.5,2.5,0,0,0,2.5,2.5h8a1.5,1.5,0,0,1,0,3Z" transform="translate(5.333 10.667)" fill="#ee5d6c"/>
  </g>
</svg>
