<svg xmlns="http://www.w3.org/2000/svg" width="18.448" height="28.599" viewBox="0 0 22.448 32.599">
  <g id="password-svgrepo-com" transform="translate(-31.62)">
    <path id="Path_54" data-name="Path 54" d="M51.259,11.755h-.531V7.883a7.884,7.884,0,0,0-15.768,0v3.872h-.531a2.812,2.812,0,0,0-2.809,2.809V29.79A2.812,2.812,0,0,0,34.429,32.6h16.83a2.812,2.812,0,0,0,2.809-2.809V14.564A2.812,2.812,0,0,0,51.259,11.755ZM37.368,7.883a5.476,5.476,0,0,1,10.953,0v3.872H37.368ZM51.661,29.79a.407.407,0,0,1-.4.4H34.429a.407.407,0,0,1-.4-.4V14.564a.407.407,0,0,1,.4-.4h16.83a.407.407,0,0,1,.4.4Z" fill="#707070"/>
    <path id="Path_55" data-name="Path 55" d="M95.251,116.309a1.2,1.2,0,0,0-1.2,1.2v4.609a1.2,1.2,0,1,0,2.408,0v-4.609A1.2,1.2,0,0,0,95.251,116.309Z" transform="translate(-52.407 -97.64)" fill="#707070"/>
  </g>
</svg>
