<svg xmlns="http://www.w3.org/2000/svg" width="24.999" height="24.999" viewBox="0 0 28.999 28.999">
  <g id="product-workspace-svgrepo-com" transform="translate(-2.2 -2.198)">
    <path id="Path_48" data-name="Path 48" d="M10.12,2.2a.993.993,0,0,1,1.036,1.036v.67A.993.993,0,0,1,10.12,4.941H7.013A2.071,2.071,0,0,0,4.941,6.89V26.385a2.071,2.071,0,0,0,1.949,2.071H26.386a2.071,2.071,0,0,0,2.071-1.949V23.278a.993.993,0,0,1,1.036-1.036h.67A.993.993,0,0,1,31.2,23.278v3.777A4.149,4.149,0,0,1,27.056,31.2H6.343A4.149,4.149,0,0,1,2.2,27.055V6.342A4.149,4.149,0,0,1,6.343,2.2Z" fill="#707070" fill-rule="evenodd"/>
    <path id="Path_49" data-name="Path 49" d="M34.8,18.546l1.889-1.889a.609.609,0,0,0,0-.914L29.07,8.068a.609.609,0,0,0-.914,0L26.268,9.956a.609.609,0,0,0,0,.914l7.615,7.615a.609.609,0,0,0,.914.061Z" transform="translate(-9.325 -2.213)" fill="#707070"/>
    <path id="Path_50" data-name="Path 50" d="M41.836,12.071l.914-.914a.609.609,0,0,0,0-.914L35.2,2.568a.609.609,0,0,0-.914,0l-.914.914a.609.609,0,0,0,0,.914l7.615,7.676A.609.609,0,0,0,41.836,12.071Z" transform="translate(-12.1 -0.064)" fill="#707070"/>
    <path id="Path_51" data-name="Path 51" d="M31.2,23.3h0c.366-.366.3-.67.061-.914l-7.615-7.615a.609.609,0,0,0-.914,0l-.061.061a.609.609,0,0,0,0,.914l7.615,7.615A.609.609,0,0,0,31.2,23.3Z" transform="translate(-7.918 -4.831)" fill="#707070"/>
    <path id="Path_52" data-name="Path 52" d="M26.836,27.384l.426-.426a.609.609,0,0,0,0-.914l-7.554-7.676a.609.609,0,0,0-.914,0l-.426.426a.609.609,0,0,0,0,.914l7.615,7.615C26.166,27.689,26.531,27.689,26.836,27.384Z" transform="translate(-6.238 -6.238)" fill="#707070"/>
    <path id="Path_53" data-name="Path 53" d="M20.1,33.246l1.889-1.889a.609.609,0,0,0,0-.914L14.37,22.768a.609.609,0,0,0-.914,0l-1.889,1.889a.609.609,0,0,0,0,.914l7.615,7.615a.609.609,0,0,0,.914.061Z" transform="translate(-3.58 -7.958)" fill="#707070"/>
  </g>
</svg>
