<svg id="store-svgrepo-com_2_" data-name="store-svgrepo-com (2)" xmlns="http://www.w3.org/2000/svg" viewBox="0 0 336.582 336.582">
  <path id="Path_58" data-name="Path 58" d="M168.291,0a168.317,168.317,0,0,0-46.7,330.019L330.677,123.941A168.364,168.364,0,0,0,168.291,0Z" fill="#e49db1"/>
  <path id="Path_59" data-name="Path 59" d="M361.512,182.844A168.454,168.454,0,0,0,355.6,138.5L300.606,83.508,289.493,96.819,246.914,54.24,92.92,290.96l53.605,53.605A168.407,168.407,0,0,0,361.512,182.844Z" transform="translate(-24.93 -14.553)" fill="#a989ae"/>
  <rect id="Rectangle_40" data-name="Rectangle 40" width="107.384" height="43.902" transform="translate(114.599 39.687)" fill="#fff"/>
  <path id="Path_60" data-name="Path 60" d="M324.935,191.776V317.095H278.326L266.4,229.744H210l14.634-78.094Z" transform="translate(-56.343 -40.688)" fill="#ffc61b"/>
  <path id="Path_61" data-name="Path 61" d="M193.221,151.65v78.094H151.456l-11.927,87.35H92.92V191.776Z" transform="translate(-24.93 -40.688)" fill="#ffedb5"/>
  <path id="Path_62" data-name="Path 62" d="M351.706,94.24V158.2l-26.846,7.317L298.014,158.2,283.38,122.56l14.634-28.32Z" transform="translate(-76.031 -25.285)" fill="#c2001b"/>
  <path id="Path_63" data-name="Path 63" d="M278.326,94.24V158.2l-26.846,7.317L224.634,158.2,210,122.56l14.634-28.32Z" transform="translate(-56.343 -25.285)" fill="#ff0f27"/>
  <path id="Path_64" data-name="Path 64" d="M204.946,94.24V158.2L178.1,165.515,151.254,158.2,136.62,122.56l14.634-28.32Z" transform="translate(-36.655 -25.285)" fill="#c2001b"/>
  <path id="Path_65" data-name="Path 65" d="M136.932,94.24V158.2l-26.846,7.317L83.24,158.2V94.24Z" transform="translate(-22.333 -25.285)" fill="#ff0f27"/>
  <path id="Path_66" data-name="Path 66" d="M156.62,181.65h53.692a26.846,26.846,0,1,1-53.692,0Z" transform="translate(-42.021 -48.737)" fill="#940030"/>
  <path id="Path_67" data-name="Path 67" d="M303.38,181.65h53.692a26.846,26.846,0,1,1-53.692,0Z" transform="translate(-81.397 -48.737)" fill="#940030"/>
  <path id="Path_68" data-name="Path 68" d="M83.24,181.65h53.692a26.846,26.846,0,1,1-53.692,0Z" transform="translate(-22.333 -48.737)" fill="#c2001b"/>
  <path id="Path_69" data-name="Path 69" d="M230,181.65h53.692a26.846,26.846,0,1,1-53.692,0Z" transform="translate(-61.709 -48.737)" fill="#c2001b"/>
  <path id="Path_70" data-name="Path 70" d="M278.326,248.38v94.667H224.634L210,288.4l14.634-40.017Z" transform="translate(-56.343 -66.64)" fill="#ffedb5"/>
  <rect id="Rectangle_41" data-name="Rectangle 41" width="53.692" height="94.667" transform="translate(114.599 181.74)" fill="#fff"/>
</svg>
