<svg xmlns="http://www.w3.org/2000/svg" width="75.746" height="70.2" viewBox="0 0 75.746 70.2">
  <g id="upload-svgrepo-com_1_" data-name="upload-svgrepo-com (1)" transform="translate(0 -17.25)">
    <g id="Group_159" data-name="Group 159" transform="translate(0 17.25)">
      <path id="Path_71" data-name="Path 71" d="M73.576,228.472a2.161,2.161,0,0,0-2.17,2.17v19.74a9.739,9.739,0,0,1-9.725,9.725H14.066a9.739,9.739,0,0,1-9.725-9.725V230.32a2.17,2.17,0,0,0-4.34,0v20.062a14.081,14.081,0,0,0,14.066,14.066H61.68a14.081,14.081,0,0,0,14.066-14.066v-19.74A2.171,2.171,0,0,0,73.576,228.472Z" transform="translate(0 -194.248)" fill="#a0a0a0"/>
      <path id="Path_72" data-name="Path 72" d="M140.018,34.756l10.1-10.1V68.69a2.17,2.17,0,1,0,4.34,0V24.661l10.1,10.1a2.184,2.184,0,0,0,1.527.643,2.091,2.091,0,0,0,1.527-.643,2.164,2.164,0,0,0,0-3.07L153.811,17.893a2.2,2.2,0,0,0-1.527-.643,2.1,2.1,0,0,0-1.527.643L136.964,31.685a2.165,2.165,0,1,0,3.054,3.07Z" transform="translate(-114.411 -17.25)" fill="#a0a0a0"/>
    </g>
  </g>
</svg>
