<svg xmlns="http://www.w3.org/2000/svg" width="20" height="22" viewBox="0 0 24 26">
  <path id="User" d="M6.239,13.091a2.223,2.223,0,0,1,1.334,0,1.817,1.817,0,0,1,.563.29,1.328,1.328,0,0,1,.37.433,1.026,1.026,0,0,1,.119.508,1.046,1.046,0,0,1-.151.5,1.382,1.382,0,0,1-.4.419,1.876,1.876,0,0,1-.581.269,6.135,6.135,0,0,0-2.823,1.71,3.916,3.916,0,0,0-1.064,2.619V22.1a1.166,1.166,0,0,0,.5.919,2.024,2.024,0,0,0,1.212.381H19.037a2.024,2.024,0,0,0,1.212-.381,1.166,1.166,0,0,0,.5-.919V19.959a4.009,4.009,0,0,0-1.107-2.7,6.308,6.308,0,0,0-2.932-1.746,1.892,1.892,0,0,1-.587-.263,1.4,1.4,0,0,1-.405-.416,1.052,1.052,0,0,1-.159-.5,1.022,1.022,0,0,1,.111-.51,1.316,1.316,0,0,1,.364-.437,1.8,1.8,0,0,1,.56-.295,2.223,2.223,0,0,1,1.336-.006,9.758,9.758,0,0,1,4.534,2.7,6.2,6.2,0,0,1,1.713,4.174V22.1a3.5,3.5,0,0,1-1.506,2.758A6.07,6.07,0,0,1,19.037,26H5.323a6.071,6.071,0,0,1-3.637-1.142A3.5,3.5,0,0,1,.18,22.1V19.838a6.1,6.1,0,0,1,1.659-4.081A9.563,9.563,0,0,1,6.239,13.091ZM12.18,0a8.1,8.1,0,0,1,4.849,1.523A4.664,4.664,0,0,1,19.037,5.2V7.8a4.665,4.665,0,0,1-2.008,3.677A8.1,8.1,0,0,1,12.18,13a8.1,8.1,0,0,1-4.849-1.523A4.665,4.665,0,0,1,5.323,7.8V5.2A4.665,4.665,0,0,1,7.332,1.523,8.1,8.1,0,0,1,12.18,0Zm0,2.6a4.048,4.048,0,0,0-2.424.762,2.332,2.332,0,0,0-1,1.838V7.8a2.332,2.332,0,0,0,1,1.838,4.24,4.24,0,0,0,4.849,0,2.332,2.332,0,0,0,1-1.838V5.2a2.332,2.332,0,0,0-1-1.838A4.048,4.048,0,0,0,12.18,2.6Z" transform="translate(-0.18)" fill="#7e7e7e"/>
</svg>
